<svg width="13" height="13" fill="none" xmlns="http://www.w3.org/2000/svg"><path clip-rule="evenodd" d="M9.667 10.906a.504.504 0 01-.233-.057L6.869 9.51l-2.565 1.34a.504.504 0 01-.729-.532l.489-2.83L1.991 5.48a.504.504 0 01.278-.859l2.868-.417 1.281-2.578c.17-.342.731-.342.901 0l1.282 2.578 2.868.417a.502.502 0 01.277.86L9.674 7.485l.488 2.831a.503.503 0 01-.495.59z"/><mask id="a" style="mask-type:alpha" maskUnits="userSpaceOnUse" x="1" y="1" width="11" height="10"><path fill-rule="evenodd" clip-rule="evenodd" d="M9.667 10.906a.504.504 0 01-.233-.057L6.869 9.51l-2.565 1.34a.504.504 0 01-.729-.532l.489-2.83L1.991 5.48a.504.504 0 01.278-.859l2.868-.417 1.281-2.578c.17-.342.731-.342.901 0l1.282 2.578 2.868.417a.502.502 0 01.277.86L9.674 7.485l.488 2.831a.503.503 0 01-.495.59z" fill="#fff"/></mask><g mask="url(#a)"><path fill="#9e9e9e" d="M.832.341h12.074v12.074H.832z"/></g></svg>