<svg width="28" height="28" fill="none" xmlns="http://www.w3.org/2000/svg"><path fill-rule="evenodd" clip-rule="evenodd" d="M13.672 18.633a1.11 1.11 0 01-.717-.26L6.24 12.776a1.119 1.119 0 111.433-1.72l6.012 5.011 6.002-4.83a1.12 1.12 0 011.404 1.744l-6.716 5.405a1.12 1.12 0 01-.702.247z" fill="#000"/><mask id="a" style="mask-type:alpha" maskUnits="userSpaceOnUse" x="5" y="10" width="17" height="9"><path fill-rule="evenodd" clip-rule="evenodd" d="M13.672 18.633a1.11 1.11 0 01-.717-.26L6.24 12.776a1.119 1.119 0 111.433-1.72l6.012 5.011 6.002-4.83a1.12 1.12 0 011.404 1.744l-6.716 5.405a1.12 1.12 0 01-.702.247z" fill="#fff"/></mask><g mask="url(#a)"><path fill="#00AC4E" d="M.24.722h26.866v26.866H.24z"/></g></svg>