<svg width="10" height="10" fill="none" xmlns="http://www.w3.org/2000/svg"><path fill-rule="evenodd" clip-rule="evenodd" d="M2.3 1C1.583 1 1 1.583 1 2.3 1 5.994 4.005 9 7.7 9a1.302 1.302 0 001.29-1.464l-2.31-.53-.143.272c-.228.436-.393.752-.814.582a5.936 5.936 0 01-3.59-3.603c-.179-.392.162-.57.592-.795l.269-.141-.53-2.31A1.302 1.302 0 002.3 1zm5.4 9C3.454 10 0 6.546 0 2.3A2.302 2.302 0 013.046.124a.501.501 0 01.323.361l.684 2.982a.499.499 0 01-.126.458c-.068.071-.07.073-.69.397a4.974 4.974 0 002.44 2.441c.325-.62.327-.622.398-.69a.505.505 0 01.458-.127l2.982.685c.168.038.304.16.36.323A2.276 2.276 0 0110 7.7 2.3 2.3 0 017.701 10z" fill="#C6C6C6"/></svg>