<svg width="30" height="30" fill="none" xmlns="http://www.w3.org/2000/svg"><path fill-rule="evenodd" clip-rule="evenodd" d="M17.124 8.763c0-1.324-1.076-2.4-2.4-2.4a2.402 2.402 0 00-2.399 2.4c0 1.323 1.076 2.4 2.4 2.4a2.402 2.402 0 002.399-2.4zm2.4 0a4.805 4.805 0 01-4.8 4.799 4.804 4.804 0 01-4.799-4.8 4.805 4.805 0 014.8-4.799 4.805 4.805 0 014.799 4.8zM6.326 24.358c0-4.63 3.769-8.398 8.399-8.398 4.63 0 8.398 3.767 8.398 8.398a1.2 1.2 0 11-2.4 0 6.006 6.006 0 00-5.998-5.999 6.006 6.006 0 00-6 6 1.2 1.2 0 11-2.399 0z" fill="#000"/><mask id="a" style="mask-type:alpha" maskUnits="userSpaceOnUse" x="6" y="3" width="18" height="23"><path fill-rule="evenodd" clip-rule="evenodd" d="M17.124 8.763c0-1.324-1.076-2.4-2.4-2.4a2.402 2.402 0 00-2.399 2.4c0 1.323 1.076 2.4 2.4 2.4a2.402 2.402 0 002.399-2.4zm2.4 0a4.805 4.805 0 01-4.8 4.799 4.804 4.804 0 01-4.799-4.8 4.805 4.805 0 014.8-4.799 4.805 4.805 0 014.799 4.8zM6.326 24.358c0-4.63 3.769-8.398 8.399-8.398 4.63 0 8.398 3.767 8.398 8.398a1.2 1.2 0 11-2.4 0 6.006 6.006 0 00-5.998-5.999 6.006 6.006 0 00-6 6 1.2 1.2 0 11-2.399 0z" fill="#fff"/></mask><g mask="url(#a)"><path fill="#C6C6C6" d="M.327.364h28.794v28.794H.327z"/></g></svg>