<svg width="13" height="13" viewBox="0 0 13 13" fill="none" xmlns="http://www.w3.org/2000/svg">
<path fill-rule="evenodd" clip-rule="evenodd" d="M9.56817 10.9061C9.48868 10.9061 9.40869 10.8874 9.33524 10.8492L6.77002 9.50899L4.2053 10.8492C4.03526 10.9372 3.83 10.9222 3.67606 10.8095C3.52111 10.6968 3.44414 10.5061 3.47684 10.3174L3.96533 7.4861L1.89263 5.48131C1.75479 5.34799 1.70498 5.14777 1.76384 4.96464C1.8227 4.78253 1.98017 4.64921 2.17033 4.62205L5.0379 4.20549L6.31976 1.62669C6.4898 1.28459 7.05074 1.28459 7.22078 1.62669L8.50264 4.20549L11.3702 4.62205C11.5604 4.64921 11.7178 4.78253 11.7767 4.96464C11.8356 5.14777 11.7858 5.34799 11.6479 5.48131L9.57521 7.4861L10.0637 10.3174C10.0964 10.5061 10.0189 10.6968 9.86448 10.8095C9.77695 10.8739 9.67281 10.9061 9.56817 10.9061Z" fill="black"/>
<mask id="mask0_174_219" style="mask-type:alpha" maskUnits="userSpaceOnUse" x="1" y="1" width="11" height="10">
<path fill-rule="evenodd" clip-rule="evenodd" d="M9.56817 10.9061C9.48868 10.9061 9.40869 10.8874 9.33524 10.8492L6.77002 9.50899L4.2053 10.8492C4.03526 10.9372 3.83 10.9222 3.67606 10.8095C3.52111 10.6968 3.44414 10.5061 3.47684 10.3174L3.96533 7.4861L1.89263 5.48131C1.75479 5.34799 1.70498 5.14777 1.76384 4.96464C1.8227 4.78253 1.98017 4.64921 2.17033 4.62205L5.0379 4.20549L6.31976 1.62669C6.4898 1.28459 7.05074 1.28459 7.22078 1.62669L8.50264 4.20549L11.3702 4.62205C11.5604 4.64921 11.7178 4.78253 11.7767 4.96464C11.8356 5.14777 11.7858 5.34799 11.6479 5.48131L9.57521 7.4861L10.0637 10.3174C10.0964 10.5061 10.0189 10.6968 9.86448 10.8095C9.77695 10.8739 9.67281 10.9061 9.56817 10.9061Z" fill="white"/>
</mask>
<g mask="url(#mask0_174_219)">
<rect x="0.733337" y="0.340576" width="12.074" height="12.074" fill="#00AC4E"/>
</g>
</svg>
